<svg xmlns="http://www.w3.org/2000/svg" viewBox="0 0 128 128">
  <!-- Fan hub -->
  <circle cx="64" cy="64" r="9" fill="#00D4FF"/>
  <!-- Blade top -->
  <path d="M64 16 C73 16 85 28 83 50 C77 43 69 39 64 39 C59 39 51 43 45 50 C43 28 55 16 64 16Z" fill="#00D4FF" opacity="0.9"/>
  <!-- Blade bottom-right -->
  <path d="M103 87 C98 96 83 100 64 92 C69 85 72 76 69 70 C67 64 61 58 54 55 C69 46 105 63 103 87Z" fill="#00D4FF" opacity="0.9"/>
  <!-- Blade bottom-left -->
  <path d="M25 87 C23 63 59 46 74 55 C67 58 61 64 59 70 C56 76 59 85 64 92 C45 100 30 96 25 87Z" fill="#00D4FF" opacity="0.9"/>
  <!-- Center dot -->
  <circle cx="64" cy="64" r="5" fill="#1A1A2E"/>
</svg>
